# xmcd
#
# Track frame offsets: 
#        150
#        16603
#        34749
#        55893
#        70035
#        89081
#        107995
#        125586
#        137421
#        156516
#        176209
#        196586
#        215363
#        239632
#        261216
#        281209
#
# Disc length: 4000 seconds
#
# Revision: 1
# Processed by: cddbd v1.5.2PL0 Copyright (c) Steve Scherf et al.
# Submitted via: ExactAudioCopyFreeDBPlugin 1.0
#
DISCID=ee0f9e10
DTITLE=群星 - 试音宝典30号
DYEAR=2013
DGENRE=stereo
TTITLE0=绣红旗
TTITLE1=游子吟
TTITLE2=爱的奉献
TTITLE3=草原上升起不落的太阳
TTITLE4=珊瑚颂
TTITLE5=边疆的泉水清又纯
TTITLE6=女儿情
TTITLE7=康定情歌
TTITLE8=我爱你塞北的雪
TTITLE9=真的好想你
TTITLE10=冰山上的雪莲
TTITLE11=绣荷包
TTITLE12=今天是你的生日
TTITLE13=军港之夜
TTITLE14=望春风
TTITLE15=草原夜色美
EXTD=
EXTT0=
EXTT1=
EXTT2=
EXTT3=
EXTT4=
EXTT5=
EXTT6=
EXTT7=
EXTT8=
EXTT9=
EXTT10=
EXTT11=
EXTT12=
EXTT13=
EXTT14=
EXTT15=
PLAYORDER=
